<?xml version="1.0" encoding="UTF-8" standalone="no"?>
<!-- Created with Inkscape (http://www.inkscape.org/) -->

<svg
   xmlns:dc="http://purl.org/dc/elements/1.1/"
   xmlns:cc="http://creativecommons.org/ns#"
   xmlns:rdf="http://www.w3.org/1999/02/22-rdf-syntax-ns#"
   xmlns:svg="http://www.w3.org/2000/svg"
   xmlns="http://www.w3.org/2000/svg"
   version="1.1"
   width="267.58405"
   height="50"
   id="svg3048">
  <title
     id="title3079">Graphity logo</title>
  <defs
     id="defs3050">
    <clipPath
       id="clipPath5384">
      <path
         d="M 0,0 96,0 96,32 0,32 0,0 z"
         id="path5386" />
    </clipPath>
  </defs>
  <metadata
     id="metadata3053">
    <rdf:RDF>
      <cc:Work
         rdf:about="">
        <dc:format>image/svg+xml</dc:format>
        <dc:type
           rdf:resource="http://purl.org/dc/dcmitype/StillImage" />
        <dc:title>Graphity logo</dc:title>
        <dc:creator>
          <cc:Agent>
            <dc:title>Martynas Jusevičius</dc:title>
          </cc:Agent>
        </dc:creator>
        <dc:date>2013-04-23</dc:date>
      </cc:Work>
    </rdf:RDF>
  </metadata>
  <g
     transform="translate(-4.52e-7,-1002.3622)"
     id="layer1">
    <path
       d="m 16.033548,1032.7413 0,-7.171 15.765734,0 0,26.0483 -7.174572,0 0,-4.4647 -0.133907,0 c -1.173444,1.8923 -2.582987,3.2349 -4.228628,4.0242 -1.645641,0.7894 -3.619,1.1841 -5.920079,1.1841 -2.977658,0 -5.4020715,-0.5181 -7.2732395,-1.5541 -1.8711676,-1.0395 -3.3370919,-2.6393 -4.3977727,-4.8065 -1.0606808,-2.1637 -1.76897605,-4.8347 -2.13193325,-8.0168 -0.3594334,-3.1785 -0.53915009800002,-6.868 -0.53915009800002,-11.0614 0,-4.0595 0.25724159800002,-7.6221 0.77877229800002,-10.6913 0.51448315,-3.0658 1.40601885,-5.6241 2.67108335,-7.6785 1.2615406,-2.0509 2.9318486,-3.5944 5.0038764,-4.6339 2.0755515,-1.036 4.6691095,-1.5575 7.7806745,-1.5575 5.324548,0 9.158503,1.3214 11.501868,3.9608 2.346888,2.6358 3.520333,6.4134 3.520333,11.3327 l -9.33822,0 c 0,-0.9021 -0.09867,-1.8289 -0.303052,-2.7733 -0.204383,-0.9479 -0.532102,-1.8183 -0.979632,-2.6076 -0.451054,-0.7859 -1.028966,-1.4413 -1.72669,-1.9628 -0.697723,-0.518 -1.546973,-0.7753 -2.537176,-0.7753 -2.346889,0 -4.03834,1.3074 -5.074354,3.9221 -1.039537,2.6182 -1.5575445,6.949 -1.5575445,12.9924 0,2.8861 0.09162,5.5008 0.2713375,7.8477 0.179716,2.3433 0.507435,4.3414 0.983156,5.987 0.472197,1.6492 1.148777,2.9107 2.029741,3.7881 0.87744,0.881 2.015646,1.318 3.414617,1.318 0.58496,0 1.229826,-0.1551 1.92755,-0.4722 0.701247,-0.3137 1.35316,-0.7894 1.962788,-1.4201 0.609627,-0.6308 1.117062,-1.4307 1.522306,-2.3998 0.408767,-0.9726 0.609627,-2.1108 0.609627,-3.4181 l 0,-4.9405 -6.427514,0 z m 44.249066,18.8773 c -0.496864,-0.6766 -0.810487,-1.4553 -0.947918,-2.3363 -0.133906,-0.8774 -0.225527,-1.7901 -0.271337,-2.738 l -0.271337,-9.2678 c -0.0881,-1.8958 -0.563817,-3.3829 -1.420114,-4.4647 -0.856297,-1.0854 -2.301078,-1.6245 -4.33082,-1.6245 l -5.208259,0 0,20.4313 -9.743464,0 0,-48.3085 17.999859,0 c 4.055959,0 7.213335,1.0254 9.468603,3.0798 2.255268,2.0544 3.382902,5.1766 3.382902,9.37 0,3.2489 -0.651913,5.8989 -1.959264,7.9498 -1.310875,2.0544 -3.340616,3.3723 -6.092748,3.9573 l 0,0.1374 c 2.438509,0.3594 4.218056,1.1488 5.34569,2.368 1.127634,1.2158 1.828882,3.1785 2.096695,5.8849 0.09162,0.9021 0.158573,1.8852 0.204384,2.9424 0.04581,1.0607 0.09162,2.2447 0.13743,3.552 0.0881,2.5724 0.222003,4.5352 0.405243,5.8884 0.271337,1.3532 0.856298,2.2764 1.758405,2.7733 l 0,0.4052 -10.55395,0 z m -7.851153,-41.1375 -4.598632,0 0,13.9404 4.059482,0 c 2.343365,0 4.147579,-0.5533 5.412644,-1.6597 1.26154,-1.103 1.895835,-2.9636 1.895835,-5.5818 0,-4.4648 -2.258792,-6.6989 -6.769329,-6.6989 z m 47.36416,41.1375 -2.23413,-10.2156 -12.855028,0 -2.234125,10.2156 -10.148707,0 12.788075,-48.3085 12.044545,0 12.788069,48.3085 -10.148699,0 z m -8.59469,-39.9182 -0.133907,0 -4.66911,21.7175 9.472126,0 -4.669109,-21.7175 z m 51.317919,12.5837 c -0.74353,1.85 -1.78307,3.3617 -3.11156,4.5352 -1.3285,1.1734 -2.94242,2.0509 -4.83826,2.6358 -1.89231,0.5885 -3.99253,0.881 -6.29008,0.881 l -5.21179,0 0,19.2825 -9.73993,0 0,-48.3085 17.04841,0 c 2.4808,0 4.56692,0.4193 6.25837,1.2545 1.69145,0.8316 3.05519,1.9275 4.09472,3.2807 1.03602,1.3531 1.77955,2.8966 2.2306,4.6338 0.45106,1.7373 0.67659,3.5063 0.67659,5.3105 0,2.4808 -0.37001,4.6444 -1.11707,6.4945 z m -10.18042,-11.9071 c -1.03954,-1.2616 -2.77327,-1.8959 -5.21178,-1.8959 l -4.05949,0 0,14.6839 4.33082,0 c 1.94165,0 3.50624,-0.5849 4.70435,-1.7619 1.19107,-1.1699 1.79012,-2.9953 1.79012,-5.4761 0,-2.4385 -0.518,-4.285 -1.55402,-5.55 z m 37.21193,39.2416 0,-21.4462 -11.36797,0 0,21.4462 -9.74346,0 0,-48.3085 9.74346,0 0,18.472 11.36797,0 0,-18.472 9.74346,0 0,48.3085 -9.74346,0 z m 16.98146,-48.3085 9.74346,0 0,48.3085 -9.74346,0 0,-48.3085 z m 34.70646,7.985 0,40.3235 -9.73994,0 0,-40.3235 -10.55747,0 0,-7.985 30.85489,0 0,7.985 -10.55748,0 z m 33.82903,21.3123 0,19.0112 -9.73994,0 0,-19.0112 -12.52027,-29.2973 10.96272,0 6.36056,18.6764 0.13391,0 6.7658,-18.6764 10.55395,0 -12.51673,29.2973"
       id="path5380"
       style="fill:#005d82;fill-opacity:1" />
  </g>
</svg>
